<?xml version="1.0" encoding="UTF-8" standalone="no"?>
<!-- Created with Inkscape (http://www.inkscape.org/) -->

<svg
   xmlns:dc="http://purl.org/dc/elements/1.1/"
   xmlns:cc="http://creativecommons.org/ns#"
   xmlns:rdf="http://www.w3.org/1999/02/22-rdf-syntax-ns#"
   xmlns:svg="http://www.w3.org/2000/svg"
   xmlns="http://www.w3.org/2000/svg"
   xmlns:sodipodi="http://sodipodi.sourceforge.net/DTD/sodipodi-0.dtd"
   xmlns:inkscape="http://www.inkscape.org/namespaces/inkscape"
   width="64px"
   height="64px"
   id="svg2985"
   version="1.1"
   inkscape:version="0.48.5 r10040"
   sodipodi:docname="iron.png">
  <defs
     id="defs2987">
    <inkscape:path-effect
       effect="envelope"
       id="path-effect4019"
       is_visible="true"
       yy="true"
       xx="true"
       bendpath1="M 6.3097072,54.064506 6.760401,48.205492"
       bendpath2="m 17.915062,54.064506 0,1.856971"
       bendpath3="m 6.3097072,55.921477 11.6053548,0"
       bendpath4="m 6.3097072,54.064506 0,1.856971"
       bendpath1-nodetypes="cc" />
    <inkscape:path-effect
       effect="bend_path"
       id="path-effect4017"
       is_visible="true"
       bendpath="m 20.436086,53.231822 c -4.302578,-2.833251 1.124827,-2.597563 -2.942234,-4.990531"
       prop_scale="1"
       scale_y_rel="false"
       vertical="false"
       bendpath-nodetypes="cc" />
    <inkscape:path-effect
       effect="bend_path"
       id="path-effect4013"
       is_visible="true"
       bendpath="m 16.901002,53.521379 1,0"
       prop_scale="1"
       scale_y_rel="false"
       vertical="false" />
    <inkscape:path-effect
       effect="bend_path"
       id="path-effect3967"
       is_visible="true"
       bendpath="m 38.421611,15.888483 c -0.488251,-0.830104 7.248652,-0.739492 6.309707,0"
       prop_scale="1"
       scale_y_rel="false"
       vertical="false"
       bendpath-nodetypes="cc" />
    <inkscape:path-effect
       effect="bend_path"
       id="path-effect3942"
       is_visible="true"
       bendpath="m 54.599047,16.113829 c 5.614171,-0.650451 4.161296,2.852325 5.278024,4.844953"
       prop_scale="1"
       scale_y_rel="false"
       vertical="false"
       bendpath-nodetypes="cc" />
    <inkscape:path-effect
       effect="bend_path"
       id="path-effect3904"
       is_visible="true"
       bendpath="M 30.430478,15.880393 C 30.049117,10.84765 32.34798,10.856311 35.032735,10.922765"
       prop_scale="1"
       scale_y_rel="false"
       vertical="false"
       bendpath-nodetypes="cc" />
    <inkscape:path-effect
       effect="bend_path"
       id="path-effect3857"
       is_visible="true"
       bendpath="M 3.8766777,44.732858 C 3.4182405,39.632409 13.384561,16.745886 32.516812,17.015216"
       prop_scale="1"
       scale_y_rel="false"
       vertical="false"
       bendpath-nodetypes="cc" />
    <inkscape:path-effect
       effect="bend_path"
       id="path-effect3027"
       is_visible="true"
       bendpath="M 2.7087835,54.535439 C 10.279607,33.249911 20.46827,22.566151 59.261557,22.53621"
       prop_scale="1"
       scale_y_rel="false"
       vertical="false"
       bendpath-nodetypes="cc" />
    <inkscape:path-effect
       effect="spiro"
       id="path-effect2999"
       is_visible="true" />
    <inkscape:path-effect
       effect="bend_path"
       id="path-effect3904-4"
       is_visible="true"
       bendpath="M 58.952504,15.880393 C 59.333865,10.84765 57.035002,10.856311 54.350247,10.922765"
       prop_scale="1"
       scale_y_rel="false"
       vertical="false"
       bendpath-nodetypes="cc" />
    <inkscape:path-effect
       effect="bend_path"
       id="path-effect4017-7"
       is_visible="true"
       bendpath="m 26.436086,53.231822 c -4.302578,-2.833251 1.124827,-2.597563 -2.942234,-4.990531"
       prop_scale="1"
       scale_y_rel="false"
       vertical="false"
       bendpath-nodetypes="cc" />
    <inkscape:path-effect
       effect="bend_path"
       id="path-effect4017-1"
       is_visible="true"
       bendpath="m 32.436086,53.231822 c -4.302578,-2.833251 1.124827,-2.597563 -2.942234,-4.990531"
       prop_scale="1"
       scale_y_rel="false"
       vertical="false"
       bendpath-nodetypes="cc" />
    <inkscape:path-effect
       effect="bend_path"
       id="path-effect4017-1-2"
       is_visible="true"
       bendpath="m 51.788166,53.006475 c -4.302578,-2.833251 1.124827,-2.597563 -2.942234,-4.990531"
       prop_scale="1"
       scale_y_rel="false"
       vertical="false"
       bendpath-nodetypes="cc" />
    <inkscape:path-effect
       effect="bend_path"
       id="path-effect4017-7-7"
       is_visible="true"
       bendpath="m 44.436086,53.231822 c -4.302578,-2.833251 1.124827,-2.597563 -2.942234,-4.990531"
       prop_scale="1"
       scale_y_rel="false"
       vertical="false"
       bendpath-nodetypes="cc" />
    <inkscape:path-effect
       effect="bend_path"
       id="path-effect4017-6"
       is_visible="true"
       bendpath="m 38.436086,53.231822 c -4.302578,-2.833251 1.124827,-2.597563 -2.942234,-4.990531"
       prop_scale="1"
       scale_y_rel="false"
       vertical="false"
       bendpath-nodetypes="cc" />
    <filter
       inkscape:label="Evanescent"
       inkscape:menu="Blurs"
       inkscape:menu-tooltip="Blur the contents of objects, preserving the outline and adding progressive transparency at edges"
       color-interpolation-filters="sRGB"
       id="filter4127">
      <feGaussianBlur
         result="result6"
         stdDeviation="3"
         in="SourceGraphic"
         id="feGaussianBlur4129" />
      <feColorMatrix
         values="1 0 0 0 0 0 1 0 0 0 0 0 1 0 0 0 0 0 1 0 "
         result="result7"
         in="SourceGraphic"
         id="feColorMatrix4131" />
      <feComposite
         operator="in"
         in="result6"
         in2="result7"
         id="feComposite4133" />
    </filter>
    <filter
       inkscape:collect="always"
       id="filter4167">
      <feGaussianBlur
         inkscape:collect="always"
         stdDeviation="0.10487026"
         id="feGaussianBlur4169" />
    </filter>
    <filter
       inkscape:collect="always"
       id="filter3794"
       x="-0.21001975"
       width="1.4200395"
       y="-0.040090097"
       height="1.0801802">
      <feGaussianBlur
         inkscape:collect="always"
         stdDeviation="0.15409897"
         id="feGaussianBlur3796" />
    </filter>
    <filter
       inkscape:collect="always"
       id="filter3806"
       x="-0.21001975"
       width="1.4200395"
       y="-0.040090097"
       height="1.0801802">
      <feGaussianBlur
         inkscape:collect="always"
         stdDeviation="0.15409897"
         id="feGaussianBlur3808" />
    </filter>
    <filter
       inkscape:collect="always"
       id="filter3810"
       x="-0.21001975"
       width="1.4200395"
       y="-0.040090097"
       height="1.0801802">
      <feGaussianBlur
         inkscape:collect="always"
         stdDeviation="0.15409897"
         id="feGaussianBlur3812" />
    </filter>
    <filter
       inkscape:collect="always"
       id="filter3814"
       x="-0.21001975"
       width="1.4200395"
       y="-0.040090097"
       height="1.0801802">
      <feGaussianBlur
         inkscape:collect="always"
         stdDeviation="0.15409897"
         id="feGaussianBlur3816" />
    </filter>
    <filter
       inkscape:collect="always"
       id="filter3818"
       x="-0.21001975"
       width="1.4200395"
       y="-0.040090097"
       height="1.0801802">
      <feGaussianBlur
         inkscape:collect="always"
         stdDeviation="0.15409897"
         id="feGaussianBlur3820" />
    </filter>
  </defs>
  <sodipodi:namedview
     id="base"
     pagecolor="#ffffff"
     bordercolor="#666666"
     borderopacity="1.0"
     inkscape:pageopacity="0.0"
     inkscape:pageshadow="2"
     inkscape:zoom="5.6568542"
     inkscape:cx="20.720225"
     inkscape:cy="28.085904"
     inkscape:current-layer="layer1"
     showgrid="true"
     inkscape:document-units="px"
     inkscape:grid-bbox="true"
     inkscape:window-width="1280"
     inkscape:window-height="972"
     inkscape:window-x="1358"
     inkscape:window-y="-8"
     inkscape:window-maximized="1" />
  <metadata
     id="metadata2990">
    <rdf:RDF>
      <cc:Work
         rdf:about="">
        <dc:format>image/svg+xml</dc:format>
        <dc:type
           rdf:resource="http://purl.org/dc/dcmitype/StillImage" />
        <dc:title></dc:title>
      </cc:Work>
    </rdf:RDF>
  </metadata>
  <g
     id="layer1"
     inkscape:label="Layer 1"
     inkscape:groupmode="layer">
    <path
       style="fill:none;stroke:#000000;stroke-width:3;stroke-linecap:butt;stroke-linejoin:miter;stroke-miterlimit:4;stroke-opacity:1;stroke-dasharray:none"
       d="m 3.8097892,43.268105 57.8225298,0"
       id="path3837"
       inkscape:connector-curvature="0" />
    <path
       style="fill:none;stroke:#000000;stroke-width:3;stroke-linecap:butt;stroke-linejoin:miter;stroke-miterlimit:4;stroke-opacity:1;stroke-dasharray:none"
       d="m 3.8766777,44.732858 c -0.080426,-0.894802 0.1055194,-1.79261 0.3142879,-2.666426 0.3147868,-1.317563 0.764181,-2.600195 1.2768563,-3.85408 2e-7,-1e-6 5e-7,-1e-6 8e-7,-2e-6 1.3650334,-3.338556 3.1946907,-6.484379 5.3824143,-9.35198 0,-1e-6 10e-7,-1e-6 10e-7,-2e-6 2.504351,-3.282626 5.522483,-6.208788 9.055667,-8.345145 3.783247,-2.287559 8.190273,-3.562237 12.610907,-3.500007"
       id="path3837-0"
       inkscape:connector-curvature="0"
       inkscape:path-effect="#path-effect3857"
       inkscape:original-d="m 3.0879643,26.141757 57.8225307,0" />
    <path
       style="fill:none;stroke:#000000;stroke-width:3;stroke-linecap:butt;stroke-linejoin:miter;stroke-miterlimit:4;stroke-opacity:1;stroke-dasharray:none"
       d="m 32.270361,17.015216 28.150987,0"
       id="path3837-9"
       inkscape:connector-curvature="0" />
    <path
       style="fill:none;stroke:#000000;stroke-width:2.93062258;stroke-linecap:butt;stroke-linejoin:miter;stroke-miterlimit:4;stroke-opacity:1;stroke-dasharray:none"
       d="m 60.167566,42.358045 0,-26.864013"
       id="path3837-9-4"
       inkscape:connector-curvature="0" />
    <path
       style="fill:none;stroke:#000000;stroke-width:3;stroke-linecap:butt;stroke-linejoin:miter;stroke-miterlimit:4;stroke-opacity:1;stroke-dasharray:none"
       d="m 30.430478,15.880393 c -0.07373,-0.973021 -0.09005,-1.969659 0.180672,-2.907163 0,0 0,0 0,0 0.16719,-0.578967 0.480947,-1.132662 0.970663,-1.48385 0,0 0,0 0,0 0.963968,-0.691285 2.265069,-0.595968 3.450922,-0.566615"
       id="path3837-9-8"
       inkscape:connector-curvature="0"
       inkscape:path-effect="#path-effect3904"
       inkscape:original-d="m 19.05047,17.232473 28.150987,0" />
    <path
       style="fill:none;stroke:#000000;stroke-width:3;stroke-linecap:butt;stroke-linejoin:miter;stroke-miterlimit:4;stroke-opacity:1;stroke-dasharray:none"
       d="m 34.861849,10.881 20.826946,0"
       id="path3837-8"
       inkscape:connector-curvature="0" />
    <path
       style="fill:none;stroke:#000000;stroke-width:3;stroke-linecap:butt;stroke-linejoin:miter;stroke-miterlimit:4;stroke-opacity:1;stroke-dasharray:none"
       d="m 54.350247,10.922765 c 1.185853,-0.02935 2.486954,-0.12467 3.450922,0.566615 0,0 0,0 0,0 0.489716,0.351188 0.803473,0.904883 0.970663,1.48385 0,0 0,0 0,0 0.270726,0.937504 0.254404,1.934142 0.180672,2.907163"
       id="path3837-9-8-5"
       inkscape:connector-curvature="0"
       inkscape:path-effect="#path-effect3904-4"
       inkscape:original-d="m 70.332512,17.232473 -28.150987,0" />
    <path
       style="fill:none;stroke:#000000;stroke-width:1px;stroke-linecap:butt;stroke-linejoin:miter;stroke-opacity:1"
       d="m 38.421611,15.888483 c -0.026,-0.0442 -0.02759,-0.102156 7.15e-4,-0.144921 0.03895,-0.05885 0.104705,-0.09407 0.168735,-0.12374 0.232133,-0.107556 0.489513,-0.147431 0.7425,-0.18553 0.796948,-0.120018 1.605996,-0.139606 2.411914,-0.134407 0,0 0,0 0,0 0.77834,0.005 1.560051,0.0295 2.327408,0.159891 0.218657,0.03715 0.446118,0.06919 0.636869,0.182345 0.04528,0.02686 0.09375,0.06311 0.100074,0.115378 0.0064,0.05277 -0.03675,0.0981 -0.07851,0.130984"
       id="path3965"
       inkscape:connector-curvature="0"
       inkscape:path-effect="#path-effect3967"
       inkscape:original-d="m 38.421611,15.888483 6.309707,0" />
    <path
       sodipodi:type="arc"
       style="fill:none;stroke-width:3;stroke-miterlimit:4;stroke-dasharray:none"
       id="path3971"
       sodipodi:cx="41.463791"
       sodipodi:cy="33.183842"
       sodipodi:rx="3.2675269"
       sodipodi:ry="3.5492103"
       d="m 44.731318,33.183842 a 3.2675269,3.5492103 0 1 1 -6.535054,0 3.2675269,3.5492103 0 1 1 6.535054,0 z"
       transform="translate(0.22534669,-4.6196071)" />
    <path
       sodipodi:type="arc"
       style="fill:#000000;fill-opacity:1;stroke:#000000;stroke-width:3;stroke-miterlimit:4;stroke-opacity:1;stroke-dasharray:none"
       id="path3973"
       sodipodi:cx="38.252602"
       sodipodi:cy="32.451466"
       sodipodi:rx="5.6900039"
       sodipodi:ry="4.5069337"
       d="m 43.942605,32.451466 a 5.6900039,4.5069337 0 1 1 -11.380007,0 5.6900039,4.5069337 0 1 1 11.380007,0 z"
       transform="matrix(0.4745493,0,0,0.59911849,9.5726014,11.43812)" />
    <path
       sodipodi:type="arc"
       style="fill:#000000;fill-opacity:1;stroke:#000000;stroke-width:3;stroke-miterlimit:4;stroke-opacity:1;stroke-dasharray:none"
       id="path3973-5"
       sodipodi:cx="38.252602"
       sodipodi:cy="32.451466"
       sodipodi:rx="5.6900039"
       sodipodi:ry="4.5069337"
       d="m 43.942605,32.451466 a 5.6900039,4.5069337 0 1 1 -11.380007,0 5.6900039,4.5069337 0 1 1 11.380007,0 z"
       transform="matrix(0.4745493,0,0,0.59911849,20.072602,11.43812)" />
    <path
       sodipodi:type="arc"
       style="fill:#000000;fill-opacity:1;stroke:#000000;stroke-width:3;stroke-miterlimit:4;stroke-opacity:1;stroke-dasharray:none"
       id="path3973-1"
       sodipodi:cx="38.252602"
       sodipodi:cy="32.451466"
       sodipodi:rx="5.6900039"
       sodipodi:ry="4.5069337"
       d="m 43.942605,32.451466 a 5.6900039,4.5069337 0 1 1 -11.380007,0 5.6900039,4.5069337 0 1 1 11.380007,0 z"
       transform="matrix(0.4745493,0,0,0.59911849,30.572602,11.43812)" />
    <path
       style="opacity:0.57894736000000002;fill:none;stroke:#730000;stroke-width:1.72346833000000000;stroke-linecap:butt;stroke-linejoin:miter;stroke-miterlimit:4;stroke-opacity:1;stroke-dasharray:none;filter:url(#filter3818)"
       d="m 18.759229,46.09067 c 0.345225,0.582915 1.14395,1.998435 1.132852,3.240706 -0.0782,0.858624 -0.514455,1.121602 -0.900632,1.300075 0,0 0,0 0,0 -0.391226,0.176902 -0.820953,0.477461 -0.893951,1.207319 0,0 0,0 0,0 -0.111562,1.224875 0.598988,2.704021 0.966268,3.477059"
       id="path4015"
       inkscape:connector-curvature="0"
       inkscape:path-effect="#path-effect4017"
       inkscape:original-d="M 20.436086,53.231823 17.493852,48.241292"
       transform="matrix(1.2864722,0,0.02141628,1.0467741,-5.7944397,0.10425331)" />
    <path
       style="opacity:0.57894736000000002;fill:none;stroke:#730000;stroke-width:1.72346833000000000;stroke-linecap:butt;stroke-linejoin:miter;stroke-miterlimit:4;stroke-opacity:1;stroke-dasharray:none;filter:url(#filter3814)"
       d="m 24.759229,46.09067 c 0.345225,0.582915 1.14395,1.998435 1.132852,3.240706 -0.0782,0.858624 -0.514455,1.121602 -0.900632,1.300075 0,0 0,0 0,0 -0.391226,0.176902 -0.820953,0.477461 -0.893951,1.207319 0,0 0,0 0,0 -0.111562,1.224875 0.598988,2.704021 0.966268,3.477059"
       id="path4015-1"
       inkscape:connector-curvature="0"
       inkscape:path-effect="#path-effect4017-7"
       inkscape:original-d="M 26.436086,53.231823 23.493852,48.241292"
       transform="matrix(1.2864722,0,0.02141628,1.0467741,-5.7944397,0.10425331)" />
    <path
       style="opacity:0.57894736000000002;fill:none;stroke:#730000;stroke-width:1.72346833000000000;stroke-linecap:butt;stroke-linejoin:miter;stroke-miterlimit:4;stroke-opacity:1;stroke-dasharray:none;filter:url(#filter3810)"
       d="m 30.759229,46.09067 c 0.345225,0.582915 1.14395,1.998435 1.132852,3.240706 -0.0782,0.858624 -0.514455,1.121602 -0.900632,1.300075 0,0 0,0 0,0 -0.391226,0.176902 -0.820953,0.477461 -0.893951,1.207319 0,0 0,0 0,0 -0.111562,1.224875 0.598988,2.704021 0.966268,3.477059"
       id="path4015-5"
       inkscape:connector-curvature="0"
       inkscape:path-effect="#path-effect4017-1"
       inkscape:original-d="M 32.436086,53.231823 29.493852,48.241292"
       transform="matrix(1.2864722,0,0.02141628,1.0467741,-5.7944397,0.10425331)" />
    <path
       style="opacity:0.57894736000000002;fill:none;stroke:#730000;stroke-width:1.72346833000000000;stroke-linecap:butt;stroke-linejoin:miter;stroke-miterlimit:4;stroke-opacity:1;stroke-dasharray:none;filter:url(#filter3806)"
       d="m 36.759229,46.09067 c 0.345225,0.582915 1.14395,1.998435 1.132852,3.240706 -0.0782,0.858624 -0.514455,1.121602 -0.900631,1.300075 -10e-7,0 -10e-7,0 -10e-7,0 -0.391226,0.176902 -0.820953,0.477461 -0.893951,1.207319 -0.111562,1.224875 0.598988,2.704021 0.966268,3.477059"
       id="path4015-14"
       inkscape:connector-curvature="0"
       inkscape:path-effect="#path-effect4017-6"
       inkscape:original-d="M 38.436086,53.231823 35.493852,48.241292"
       transform="matrix(1.2864722,0,0.02141628,1.0467741,-5.7944397,0.10425331)" />
    <path
       style="opacity:0.57894736000000002;fill:none;stroke:#730000;stroke-width:1.72346833000000000;stroke-linecap:butt;stroke-linejoin:miter;stroke-miterlimit:4;stroke-opacity:1;stroke-dasharray:none;filter:url(#filter3794)"
       d="m 42.759229,46.09067 c 0.345225,0.582915 1.14395,1.998435 1.132852,3.240706 -0.0782,0.858624 -0.514455,1.121602 -0.900631,1.300075 -10e-7,0 -10e-7,0 -10e-7,0 -0.391226,0.176902 -0.820953,0.477461 -0.893951,1.207319 -0.111562,1.224875 0.598988,2.704021 0.966268,3.477059"
       id="path4015-1-2"
       inkscape:connector-curvature="0"
       inkscape:path-effect="#path-effect4017-7-7"
       inkscape:original-d="M 44.436086,53.231823 41.493852,48.241292"
       transform="matrix(1.2864722,0,0.02141628,1.0467741,-5.7944397,0.10425331)" />
  </g>
</svg>
